<?xml version="1.0" encoding="UTF-8"?>
<svg version="1.2" baseProfile="tiny"
     xmlns="http://www.w3.org/2000/svg"
     width="300" height="300" viewBox="0 0 300 300">

  <!-- Brand background (green) -->
  <rect x="0" y="0" width="300" height="300" fill="#4A634A"/>

  <!-- Flower (white) — same two subpaths as before -->
  <path fill="#FFFFFF" d="
    M 158.60065,257.42397
      c 0.98013,-27.24316 6.11082,-50.15265 13.7058,-61.19902
        3.52664,-5.12925 11.69338,-11.80132 18.91295,-15.45149
        2.40897,-1.21796 9.15595,-4.0562 14.99331,-6.3072
        20.82641,-8.03107 30.03511,-17.17691 33.94238,-33.71063
        1.83164,-7.75057 1.79263,-11.66214 -0.1163,-11.66214
        -2.93529,0 -21.12107,6.57515 -26.52947,9.59183
        -3.03178,1.69105 -9.23312,5.85409 -13.78077,9.25119
        -4.54765,3.3971 -10.78521,7.36076 -13.86122,8.80814
        -6.17824,2.9071 -16.17184,5.30762 -22.19846,5.33218
        l -3.90454,0.0159 v -10.9347 -10.93472 l 5.28261,-1.51279
        c 24.75533,-7.08926 40.15807,-31.93887 35.05187,-56.550051
        -1.7475,-8.422763 -6.97734,-18.035469 -13.17868,-24.223078
        -9.3671,-9.346371 -20.98724,-14.092022 -34.50555,-14.092022
        -24.07868,0 -42.83686,15.627972 -47.57788,39.638463
        -4.78796,24.248268 11.22752,48.965398 35.91282,55.425248
        l 6.15275,1.61011 v 10.78677 10.78677 h -5.87488
        c -11.78454,0 -21.94487,-4.71042 -34.54869,-16.01709
        -12.15587,-10.89855 -24.76615,-16.35609 -40.707461,-17.62247
        l -7.150273,-0.568 2.421128,6.78387
        c 4.891661,13.70619 10.30509,22.58834 19.229153,31.55051
        9.285272,9.32492 15.456987,13.01223 29.858311,17.83892
        18.53058,6.21062 28.81935,12.78066 33.08784,21.12871
        1.66685,3.25995 2.12565,6.35174 2.80261,18.88705
        0.71151,13.17515 4.26674,36.17949 6.03175,39.02892
        0.28119,0.45395 1.81609,0.69899 3.41087,0.54454
        l 2.89962,-0.28082 z
    M 142.31332,117.4118
      c -6.18069,-2.17592 -14.14473,-10.51098 -16.00049,-16.74588
        -1.95705,-6.575263 -1.83909,-12.658476 0.35904,-18.516159
        2.5993,-6.926757 6.51808,-11.189084 13.39102,-14.564991
        22.37909,-10.99235 46.40436,10.054813 38.37358,33.61689
        -2.09394,6.14357 -10.15183,14.1833 -16.3093,16.27253
        -5.58858,1.89621 -14.32868,1.8687 -19.81385,-0.0625 z"/>
</svg>
