<?xml version="1.0" encoding="UTF-8" standalone="no"?>
<!-- Created with Inkscape (http://www.inkscape.org/) -->

<svg
   version="1.1"
   id="svg1"
   width="300"
   height="300"
   viewBox="0 0 300 300"
   xmlns="http://www.w3.org/2000/svg"
   xmlns:svg="http://www.w3.org/2000/svg">
  <defs
     id="defs1" />
  <g
     id="g1">
    <g
       id="g2"
       transform="matrix(1.3668204,0,0,1.3668204,-0.57944126,-0.60470311)">
      <path
         style="fill:#f4f2f8"
         d="m 110.72861,188.83333 c -2.02375,-7.71117 -4.04872,-23.64169 -4.07658,-32.07063 -0.0187,-5.64228 -1.4566,-8.832 -5.80641,-12.88005 C 96.749507,140.07068 90.667238,136.94273 81,133.67656 71.456507,130.4522 66.276931,127.53323 60.605745,122.18332 53.727458,115.6947 48.91749,107.92997 45.257247,97.406257 l -1.249937,-3.593744 5.496345,0.35307 c 10.474817,0.672873 20.209309,5.074243 28.814907,13.028417 7.989698,7.3849 14.955188,10.68664 23.848108,11.30432 l 5.16666,0.35887 v -8.68623 -8.68623 l -3.0063,-0.45083 C 99.480313,100.30709 90.989467,95.657262 86.750469,91.408475 71.429787,76.052412 74.093173,49.490779 92.113119,37.927412 c 14.130421,-9.067469 32.185741,-7.139905 43.897101,4.686403 6.94246,7.010601 9.98134,14.54922 9.96466,24.719518 C 145.94915,83.011792 135.92265,95.870867 120,100.64634 l -3.66667,1.0997 v 8.29364 8.29365 l 4.33334,-0.17169 c 9.12939,-0.36173 16.30406,-3.29426 25.81546,-10.55163 6.58412,-5.02382 12.83212,-8.338231 20.8096,-11.03899 7.55329,-2.557155 8.0416,-2.519371 8.0416,0.622247 0,1.389631 -0.45987,4.292173 -1.02194,6.450093 -2.86242,10.98959 -10.4763,18.11114 -24.9019,23.29168 -5.65106,2.02942 -13.48644,5.84783 -16.01479,7.80447 -4.04437,3.12987 -8.2893,7.75725 -9.69719,10.57086 -4.29418,8.58177 -6.71909,19.40192 -7.81164,34.8563 l -0.78943,11.16666 h -1.85586 c -1.58346,0 -1.95216,-0.36694 -2.51197,-2.5 z m 8.97886,-103.44502 c 13.15614,-5.802237 16.09536,-23.150732 5.64112,-33.296228 -8.53634,-8.284235 -23.99034,-6.817967 -30.684255,2.911306 -11.747438,17.074316 6.106475,38.736532 25.043135,30.384922 z"
         id="path8" />
      <path
         style="fill:#ced1d0"
         d="m 115.4633,184.33333 c 0.0136,-1.1 0.163,-1.46929 0.33203,-0.82064 0.16903,0.64864 0.15791,1.54864 -0.0247,2 -0.18261,0.45135 -0.32091,-0.0794 -0.30732,-1.17936 z m -8.744,-19.38889 c 0.032,-0.77662 0.18996,-0.9346 0.40278,-0.40277 0.19258,0.48125 0.16889,1.05625 -0.0526,1.27777 -0.22152,0.22153 -0.37909,-0.17222 -0.35014,-0.875 z m -47.750668,-43.77777 -2.635299,-2.83334 2.833334,2.6353 C 61.801638,123.41943 62.30635,124 61.801965,124 c -0.108919,0 -1.383919,-1.275 -2.833333,-2.83333 z m 59.877388,-2.962 c 0.64865,-0.16903 1.54865,-0.15791 2,0.0247 0.45136,0.18261 -0.0793,0.32091 -1.17935,0.30732 -1.1,-0.0136 -1.46929,-0.163 -0.82065,-0.33203 z m 47.48731,-0.87134 C 166.99699,116.6 167.68998,116 167.87332,116 c 0.18333,0 -0.20966,0.6 -0.87332,1.33333 -0.66366,0.73334 -1.35665,1.33334 -1.53998,1.33334 -0.18334,0 0.20966,-0.6 0.87331,-1.33334 z M 116.25691,110 c 0,-4.58333 0.10651,-6.45833 0.23669,-4.16667 0.13018,2.29167 0.13018,6.04167 0,8.33334 -0.13018,2.29166 -0.23669,0.41666 -0.23669,-4.16667 z M 79.248296,108.16667 C 78.419049,107.1093 78.44263,107.08572 79.5,107.91496 c 0.641667,0.50323 1.166667,1.02823 1.166667,1.16667 0,0.54869 -0.547457,0.19554 -1.418371,-0.91496 z M 44.846021,93.538006 c 0.648645,-0.169029 1.548645,-0.157913 2,0.0247 0.451355,0.182615 -0.07935,0.320912 -1.179354,0.307325 -1.1,-0.01359 -1.469291,-0.162999 -0.820646,-0.332028 z M 146.12997,67 c 0.0136,-1.1 0.16299,-1.46929 0.33202,-0.820645 0.16903,0.648645 0.15792,1.548645 -0.0247,2 C 146.25468,68.63071 146.11638,68.1 146.12997,67 Z M 96.333333,52.666667 c 0.663658,-0.733334 1.35665,-1.333334 1.539984,-1.333334 0.183333,0 -0.209659,0.6 -0.873317,1.333334 C 96.336342,53.4 95.64335,54 95.460017,54 c -0.183334,0 0.209659,-0.6 0.873316,-1.333333 z m 28.914967,-0.5 c -0.82925,-1.057371 -0.80567,-1.080951 0.2517,-0.251704 1.1105,0.870913 1.46365,1.41837 0.91496,1.41837 -0.13843,0 -0.66343,-0.525 -1.16666,-1.166666 z m 10.66666,-10 c -0.82924,-1.057371 -0.80566,-1.080951 0.25171,-0.251704 1.1105,0.870913 1.46365,1.41837 0.91496,1.41837 -0.13844,0 -0.66344,-0.525 -1.16667,-1.166666 z"
         id="path7" />
      <path
         style="fill:#aeb5af"
         d="m 115.51491,188.66667 c 0,-1.65 0.13001,-2.325 0.28891,-1.5 0.1589,0.825 0.1589,2.175 0,3 -0.1589,0.825 -0.28891,0.15 -0.28891,-1.5 z m 0.53772,-13.05556 c 0.032,-0.77663 0.18996,-0.9346 0.40278,-0.40278 0.19258,0.48125 0.1689,1.05625 -0.0526,1.27778 -0.22153,0.22153 -0.3791,-0.17222 -0.35015,-0.875 z m -9.33333,-8.66667 c 0.032,-0.77662 0.18996,-0.9346 0.40278,-0.40277 0.19258,0.48125 0.16889,1.05625 -0.0526,1.27777 -0.22152,0.22153 -0.37909,-0.17222 -0.35014,-0.875 z m -5.51097,-48.73318 c 0.48125,-0.19258 1.05625,-0.1689 1.27778,0.0526 0.22153,0.22153 -0.17222,0.37909 -0.875,0.35015 -0.77663,-0.032 -0.9346,-0.18997 -0.40278,-0.40278 z m 4,0 c 0.48125,-0.19258 1.05625,-0.1689 1.27778,0.0526 0.22153,0.22153 -0.17222,0.37909 -0.875,0.35015 -0.77663,-0.032 -0.9346,-0.18997 -0.40278,-0.40278 z M 77.248296,106.16667 C 76.419049,105.1093 76.44263,105.08572 77.5,105.91496 c 0.641667,0.50323 1.166667,1.02823 1.166667,1.16667 0,0.54869 -0.547457,0.19554 -1.418371,-0.91496 z M 175.38596,95.611111 c 0.032,-0.776629 0.18997,-0.934599 0.40278,-0.402778 0.19258,0.48125 0.1689,1.05625 -0.0526,1.277778 -0.22153,0.221528 -0.37909,-0.172222 -0.35015,-0.875 z M 47.875,93.544591 c 0.48125,-0.192581 1.05625,-0.168897 1.277778,0.05263 0.221528,0.221528 -0.172222,0.379094 -0.875,0.350146 -0.776629,-0.03199 -0.9346,-0.18996 -0.402778,-0.402777 z M 131.4633,67 c 0.0136,-1.1 0.163,-1.46929 0.33203,-0.820645 0.16903,0.648645 0.15791,1.548645 -0.0247,2 C 131.58801,68.63071 131.44971,68.1 131.4633,67 Z M 76.052632,66.94444 c 0.03199,-0.776628 0.18996,-0.934599 0.402777,-0.402777 0.192581,0.48125 0.168897,1.05625 -0.05263,1.277777 -0.221528,0.221528 -0.379094,-0.172222 -0.350146,-0.875 z M 90.77193,66.666667 c 0,-0.916667 0.151316,-1.291667 0.336257,-0.833334 0.184942,0.458334 0.184942,1.208334 0,1.666667 -0.184941,0.458333 -0.336257,0.08333 -0.336257,-0.833333 z m 55.2807,-2.388889 c 0.032,-0.776629 0.18996,-0.9346 0.40278,-0.402778 0.19258,0.48125 0.1689,1.05625 -0.0526,1.277778 -0.22153,0.221528 -0.3791,-0.172222 -0.35015,-0.875 z"
         id="path6" />
      <path
         style="fill:#8b968a"
         d="m 111.08611,191.47266 c -0.17925,-0.29004 0.70304,-0.40722 1.96065,-0.2604 1.25762,0.14682 2.28657,0.38413 2.28657,0.52734 0,0.50172 -3.92461,0.25506 -4.24722,-0.26694 z m -7.87778,-73.2614 c 0.48125,-0.19258 1.05625,-0.1689 1.27778,0.0526 0.22153,0.22153 -0.17222,0.37909 -0.875,0.35015 -0.77663,-0.032 -0.9346,-0.18997 -0.40278,-0.40278 z m 72.17763,-20.600149 c 0.032,-0.776629 0.18997,-0.934599 0.40278,-0.402778 0.19258,0.48125 0.1689,1.05625 -0.0526,1.277778 -0.22153,0.221528 -0.37909,-0.172222 -0.35015,-0.875 z m -40.05263,-5.196148 c 0,-0.138437 0.525,-0.663437 1.16667,-1.166667 1.05737,-0.829247 1.08095,-0.805666 0.2517,0.251704 -0.87091,1.110499 -1.41837,1.463653 -1.41837,0.914963 z M 110.5,86.891813 c 0.45833,-0.184942 1.20833,-0.184942 1.66667,0 0.45833,0.184941 0.0833,0.336257 -0.83334,0.336257 -0.91666,0 -1.29166,-0.151316 -0.83333,-0.336257 z M 76.052632,64.944444 c 0.03199,-0.776628 0.18996,-0.934599 0.402777,-0.402777 0.192581,0.48125 0.168897,1.05625 -0.05263,1.277777 -0.221528,0.221528 -0.379094,-0.172222 -0.350146,-0.875 z"
         id="path5" />
      <path
         style="fill:#798677"
         d="m 124.66667,81.748296 c 0,-0.138436 0.525,-0.663436 1.16666,-1.166666 1.05737,-0.829247 1.08095,-0.805667 0.25171,0.251703 -0.87092,1.110499 -1.41837,1.463653 -1.41837,0.914963 z"
         id="path4" />
      <path
         style="fill:#687867"
         d="m 106.18158,158 c 0,-1.65 0.13001,-2.325 0.28891,-1.5 0.1589,0.825 0.1589,2.175 0,3 -0.1589,0.825 -0.28891,0.15 -0.28891,-1.5 z m 22.15175,-18.66667 C 128.99699,138.6 129.68998,138 129.87332,138 c 0.18333,0 -0.20966,0.6 -0.87332,1.33333 -0.66366,0.73334 -1.35665,1.33334 -1.53998,1.33334 -0.18334,0 0.20966,-0.6 0.87331,-1.33334 z M 106.92357,110 c 0,-4.58333 0.10651,-6.45833 0.23669,-4.16667 0.13019,2.29167 0.13019,6.04167 0,8.33334 -0.13018,2.29166 -0.23669,0.41666 -0.23669,-4.16667 z M 110.5,46.891813 c 0.45833,-0.184942 1.20833,-0.184942 1.66667,0 0.45833,0.184941 0.0833,0.336257 -0.83334,0.336257 -0.91666,0 -1.29166,-0.151316 -0.83333,-0.336257 z M 110.16667,31.54045 c 0.64166,-0.167685 1.69166,-0.167685 2.33333,0 0.64167,0.167685 0.11667,0.304882 -1.16667,0.304882 -1.28333,0 -1.80833,-0.137197 -1.16666,-0.304882 z"
         id="path3" />
      <path
         style="fill:#4e614b"
         d="M 0,110 V 0 H 110 220 V 110 220 H 110 0 Z m 116.23951,72.68117 c 0.76034,-15.9279 4.25501,-31.54403 8.59908,-38.42548 2.34192,-3.70984 8.50983,-9.16757 13.37452,-11.83456 2.26612,-1.24237 7.76434,-3.65857 12.21826,-5.36934 12.13788,-4.6622 18.26876,-9.47613 22.14119,-17.38512 C 174.6386,105.44702 176,100.1379 176,96.300519 c 0,-2.914836 -0.60862,-2.933359 -8.77322,-0.267007 -7.90957,2.583068 -14.59932,6.193048 -22.21053,11.985428 -3.30894,2.51821 -7.7058,5.32467 -9.77081,6.23657 C 131.14676,116.06548 122.76837,118 119.02811,118 h -2.36144 v -7.93507 -7.93506 l 4.5,-1.37688 c 15.36408,-4.700996 25.5,-18.166187 25.5,-33.875821 0,-9.488152 -4.08707,-18.978078 -10.92998,-25.378764 C 121.95577,28.608074 100.79605,28.471719 87.203824,41.185654 78.042265,49.755219 74.147096,63.048042 77.227757,75.230406 80.507055,88.19827 89.576436,97.467094 102.50236,101.06082 l 4.16431,1.15778 v 7.98596 7.98596 L 101.5,117.82992 C 93.022355,117.23822 86.425386,114.01715 78.275012,106.48996 69.281444,98.184053 57.652763,93.333333 46.734488,93.333333 h -3.321724 l 1.541103,4.531029 c 3.485313,10.247248 8.2796,17.971468 15.28469,24.625618 5.942233,5.64454 10.209584,8.02229 21.42811,11.93967 9.768513,3.41105 14.677527,5.97074 18.889523,9.8495 4.40689,4.05824 5.20182,6.19883 5.71427,15.38752 0.56743,10.17445 1.40442,16.91328 3.16719,25.5 L 110.84047,192 h 2.4771 2.47709 z M 106,86.082864 C 100.27193,84.197997 95.977548,80.577381 93.250072,75.333333 91.994705,72.919673 91.689438,71.290952 91.688176,67 c -0.0019,-6.302568 1.439426,-10.083158 5.325526,-13.969257 3.918508,-3.918513 8.366948,-5.684384 14.319628,-5.684384 8.215,0 14.51016,3.897711 18.09764,11.20533 2.19561,4.472413 2.1887,12.545854 -0.0144,16.781644 -3.61179,6.944313 -9.46208,10.740932 -17.08326,11.086414 -2.56666,0.116351 -5.41666,-0.03525 -6.33333,-0.336883 z"
         id="path2" />
    </g>
  </g>
</svg>
